<svg width="512" height="512" viewBox="0 0 512 512" fill="none" xmlns="http://www.w3.org/2000/svg">
  <rect width="512" height="512" rx="100" fill="#0284c7"/>
  <path d="M256 96C185.3 96 128 153.3 128 224C128 294.7 185.3 352 256 352C326.7 352 384 294.7 384 224C384 153.3 326.7 96 256 96ZM256 320C202.1 320 160 277.9 160 224C160 170.1 202.1 128 256 128C309.9 128 352 170.1 352 224C352 277.9 309.9 320 256 320Z" fill="white"/>
  <path d="M368 352L416 416L384 432L336 368L368 352Z" fill="white"/>
  <path d="M224 192L256 224L288 192L256 224L256 272L224 240L224 192Z" fill="#0284c7"/>
</svg>
